# xmcd
#
# Track frame offsets:
#	150
#	44678
#	102707
#	131571
#	156911
#	189106
#	223287
#	241223
#	282024
#	330760
#
# Disc length: 4699 seconds
#
# Revision: 1
# Processed by: cddbd v1.5.2PL0 Copyright (c) Steve Scherf et al.
# Submitted via: audiograbber 1.83.01
#
DISCID=8e12590a
DTITLE=Grateful Dead - 79-11-08 Capital Centre, Landover MD
DYEAR=1900
DGENRE=
TTITLE0=Scarlet Begonias
TTITLE1=Fire On The Mountain
TTITLE2=Lost Sailor
TTITLE3=Saint Of Circumstance
TTITLE4=Drums
TTITLE5=Space
TTITLE6=Drums
TTITLE7=Not Fade Away
TTITLE8=Morning Dew
TTITLE9=Johnny B Goode
EXTD=
EXTT0=
EXTT1=
EXTT2=
EXTT3=
EXTT4=
EXTT5=
EXTT6=
EXTT7=
EXTT8=
EXTT9=
PLAYORDER=
